{"title":"Limitless.2011.TS.V2.XviD.Feel-Free","uid":6272957,"size":1107327710,"categoryP":"video","categoryS":"movies","magnet":"?xt=urn:btih:24d5c69b6225fe71bd3b5cf7c8c70dc4aac9d015&amp;dn=Limitless.2011.TS.V2.XviD.Feel-Free&amp;tr=udp%3A%2F%2Ftracker.openbittorrent.com%3A80&amp;tr=udp%3A%2F%2Fopen.demonii.com%3A1337&amp;tr=udp%3A%2F%2Ftracker.coppersurfer.tk%3A6969&amp;tr=udp%3A%2F%2Fexodus.desync.com%3A6969","seeders":0,"leechers":0,"uploader":"qwersd","files":9,"time":1301150301,"description":"Genre:Thriller\nLanguage:English\nIMDb: http://www.imdb.com/title/tt1219289/\nSource:D.TS.Proper/IMAGINE Thx.\n\n\nFormat : AVI\nFormat/Info : Audio Video Interleave\nFile size : 1.03 GiB\nDuration : 1h 37mn\nOverall bit rate : 1 512 Kbps\n\n\nVideo\nID : 0\nFormat : MPEG-4 Visual\nFormat profile : Advanced Simple@L5\nFormat settings, BVOP : Yes\nFormat settings, QPel : No\nFormat settings, GMC : No warppoints\nFormat settings, Matrix : Default (H.263)\nMuxing mode : Packed bitstream\nCodec ID : XVID\nCodec ID/Hint : XviD\nDuration : 1h 37mn\nBit rate : 1 246 Kbps\nWidth : 720 pixels\nHeight : 304 pixels\nDisplay aspect ratio : 2.35:1\nFrame rate : 25.000 fps\nColor space : YUV\nChroma subsampling : 4:2:0\nBit depth : 8 bits\nScan type : Progressive\nBits/(Pixel*Frame) : 0.228\nStream size : 869 MiB (82%)\nWriting library : XviD 1.2.1\n\nAudio\nID : 1\nFormat : AC-3\nFormat/Info : Audio Coding 3\nMode extension : CM (complete main)\nCodec ID : 2000\nDuration : 1h 37mn\nBit rate mode : Constant\nBit rate : 256 Kbps\nChannel(s) : 2 channels\nChannel positions : Front: L R\nSampling rate : 48.0 KHz\nBit depth : 16 bits\nVideo delay : 100ms\nStream size : 179 MiB (17%)\nAlignment : Split accross interleaves\nInterleave, duration : 40 ms (1.00 video frame)\nInterleave, preload duration : 500 ms\n\n\n\nPlot:\nA writer discovers a top-secret drug which bestows him with super human abilities\n &lt;a href=&quot;\nhttp://www.pix2links.com/images/07790046937397646518.png&quot; rel=&quot;nofollow&quot; target=&quot;_NEW&quot;&gt;\nhttp://www.pix2links.com/images/07790046937397646518.png&lt;/a&gt; &lt;a href=&quot;\nhttp://www.pix2links.com/images/44583634820688253984.png&quot; rel=&quot;nofollow&quot; target=&quot;_NEW&quot;&gt;\nhttp://www.pix2links.com/images/44583634820688253984.png&lt;/a&gt; &lt;a href=&quot;\nhttp://www.pix2links.com/images/08608364066709564843.png&quot; rel=&quot;nofollow&quot; target=&quot;_NEW&quot;&gt;\nhttp://www.pix2links.com/images/08608364066709564843.png&lt;/a&gt; &lt;a href=&quot;\nhttp://www.pix2links.com/images/59729061080923329265.png&quot; rel=&quot;nofollow&quot; target=&quot;_NEW&quot;&gt;\nhttp://www.pix2links.com/images/59729061080923329265.png&lt;/a&gt; &lt;a href=&quot;\nhttp://www.pix2links.com/images/07758525317038862911.png&quot; rel=&quot;nofollow&quot; target=&quot;_NEW&quot;&gt;\nhttp://www.pix2links.com/images/07758525317038862911.png&lt;/a&gt;\n\n\nGreets:\n\nINK,CRYS,IMAGINE,LKRG,FXG,3Li,FLAWL3SS,TA,iLLUSiON,ViSiON,DTRG SAFCuk009,LU,TheFalcon007,MYSTiC,PrisM,Noir,WBZ,LAP,Rx,Kingdom,SAFCuk009+Fabreezy,HDLiTE,TWiZTED,ExtraTorrentRG.ELEKTRI4KA,MAGNAT,CM8\nAnd to all the other p2p grps past and present","torrent":{"xt":"urn:btih:24d5c69b6225fe71bd3b5cf7c8c70dc4aac9d015","amp;dn":"Limitless.2011.TS.V2.XviD.Feel-Free","amp;tr":["udp%3A%2F%2Ftracker.openbittorrent.com%3A80","udp%3A%2F%2Fopen.demonii.com%3A1337","udp%3A%2F%2Ftracker.coppersurfer.tk%3A6969","udp%3A%2F%2Fexodus.desync.com%3A6969"],"infoHash":"24d5c69b6225fe71bd3b5cf7c8c70dc4aac9d015","infoHashBuffer":{"type":"Buffer","data":[36,213,198,155,98,37,254,113,189,59,92,247,200,199,13,196,170,201,208,21]},"announce":[],"urlList":[]}}